<?xml version="1.0" encoding="utf-8"?>
<svg viewBox="-2.536 -0.113 253.895 84.757" xmlns="http://www.w3.org/2000/svg">
  <text style="fill: rgb(102, 102, 102); font-family: Arial, sans-serif; font-size: 70px; font-weight: 700; paint-order: fill; text-anchor: middle; text-transform: capitalize; white-space: pre; isolation: isolate;" x="181.302" y="66.538">Jest</text>
  <g style="" transform="matrix(1.011911, 0, 0, 1.011911, -217.452225, -0.503421)">
    <g transform="matrix(0.296772, 0, 0, 0.296772, 152.058136, 16.144905)" style="">
      <g>
        <g>
          <g>
            <g>
              <path d="M 442.835 85.857 C 442.835 71.349 431.073 59.587 416.565 59.587 C 415.631 59.587 414.711 59.637 413.803 59.733 L 449.885 -46.687 L 296.549 -46.687 L 332.581 59.64 C 332.049 59.606 331.517 59.589 330.984 59.588 C 316.476 59.588 304.714 71.348 304.714 85.858 C 304.714 97.585 312.4 107.514 323.007 110.892 C 317.405 120.596 310.355 129.337 302.351 136.889 C 291.467 147.156 279.011 154.942 265.539 159.739 C 249.499 151.499 241.925 133.174 248.759 117.107 C 249.531 115.292 250.319 113.453 251.072 111.622 C 262.692 108.91 271.352 98.493 271.352 86.046 C 271.352 71.537 259.59 59.776 245.081 59.776 C 230.572 59.776 218.811 71.537 218.811 86.046 C 218.811 94.943 223.237 102.802 230.004 107.554 C 223.502 122.358 213.944 137.852 210.966 155.809 C 207.397 177.329 210.954 200.173 229.567 213.074 C 272.915 243.118 319.969 194.449 369.581 182.214 C 387.561 177.781 407.298 178.495 423.139 169.321 C 435.035 162.431 442.878 151.012 445.103 138.193 C 447.303 125.529 444.097 112.92 436.725 102.696 C 440.68 97.977 442.844 92.014 442.835 85.857" fill="#99425b"/>
            </g>
          </g>
          <g>
            <g>
              <g>
                <g>
                  <g>
                    <g>
                      <g>
                        <g>
                          <g>
                            <g>
                              <path d="M 438.782 137.095 C 436.85 148.225 429.976 157.946 419.924 163.769 C 410.553 169.196 399.324 170.816 387.434 172.53 C 381.065 173.448 374.479 174.399 368.045 175.985 C 351.033 180.18 334.555 188.365 318.621 196.28 C 286.731 212.12 259.191 225.798 233.223 207.8 C 214.201 194.617 215.079 170.225 217.295 156.859 C 219.349 144.475 224.902 133.07 230.271 122.041 C 231.186 120.166 232.093 118.288 232.993 116.407 C 235.699 117.489 238.539 118.201 241.436 118.525 C 235.97 136.564 244.566 156.178 262.607 165.446 L 265.077 166.715 L 267.691 165.784 C 281.954 160.704 295.097 152.554 306.754 141.555 C 314.289 134.446 320.768 126.581 326.093 118.177 C 327.712 118.421 329.347 118.543 330.984 118.544 C 347.543 118.544 361.255 106.165 363.377 90.177 C 370.155 89.929 377.354 89.927 384.171 90.175 C 386.291 106.165 400.005 118.545 416.564 118.545 C 423.488 118.545 429.91 116.375 435.201 112.689 C 438.874 120.208 440.245 128.668 438.782 137.095 Z M 245.082 66.192 C 256.03 66.192 264.936 75.099 264.936 86.047 C 264.936 89.979 263.782 93.646 261.801 96.734 C 258.501 101.881 252.891 105.409 246.446 105.849 C 245.995 105.879 245.54 105.901 245.082 105.901 C 242.642 105.901 240.305 105.456 238.144 104.648 C 233.792 103.011 230.147 99.907 227.839 95.871 C 226.125 92.88 225.224 89.493 225.227 86.047 C 225.227 75.099 234.134 66.192 245.082 66.192 Z M 311.131 85.858 C 311.131 75.911 318.484 67.652 328.038 66.224 C 329 66.079 329.984 66.004 330.985 66.004 C 337.35 66.004 343.017 69.019 346.651 73.691 C 347.561 74.855 348.339 76.118 348.969 77.456 C 350.203 80.084 350.842 82.953 350.839 85.858 C 350.839 87.445 350.647 88.988 350.294 90.468 C 348.359 98.568 341.452 104.76 332.988 105.612 C 332.33 105.678 331.662 105.712 330.985 105.712 C 327.166 105.715 323.428 104.61 320.225 102.531 C 314.759 98.99 311.131 92.841 311.131 85.858 Z M 393.996 62.248 C 389.675 66.372 386.566 71.599 385.005 77.365 C 377.522 77.089 370.03 77.089 362.547 77.365 C 360.867 71.133 357.385 65.635 352.7 61.459 L 373.245 19.917 Z M 305.498 -40.269 L 440.935 -40.269 L 408.946 54.076 C 407.57 54.405 406.217 54.824 404.895 55.331 L 373.295 -9.132 L 341.605 54.946 C 340.224 54.471 338.812 54.091 337.379 53.807 Z M 436.418 85.859 C 436.418 87.849 436.121 89.771 435.574 91.586 C 434.276 95.859 431.581 99.572 427.921 102.131 C 424.594 104.465 420.628 105.716 416.564 105.713 C 407.397 105.713 399.664 99.466 397.39 91.006 C 396.938 89.327 396.71 87.597 396.71 85.859 C 396.71 83.145 397.258 80.557 398.248 78.199 C 398.759 76.992 399.388 75.839 400.126 74.757 C 403.699 69.483 409.728 66.005 416.564 66.005 C 417.191 66.005 417.809 66.037 418.422 66.095 C 428.502 67.034 436.419 75.537 436.419 85.859 Z M 449.251 85.859 C 449.251 69.901 437.753 56.586 422.609 53.742 L 458.835 -53.103 L 287.6 -53.103 L 323.882 53.958 C 309.264 57.211 298.299 70.274 298.299 85.858 C 298.299 97.56 304.483 107.838 313.751 113.614 C 309.293 120.256 304.007 126.506 297.949 132.222 C 288.341 141.285 277.638 148.159 266.099 152.682 C 254.476 145.381 249.563 131.612 254.665 119.618 L 255.065 118.678 L 255.815 116.914 C 268.581 112.461 277.768 100.311 277.768 86.047 C 277.768 68.023 263.105 53.36 245.082 53.36 C 227.059 53.36 212.394 68.023 212.394 86.047 C 212.394 95.144 216.134 103.382 222.152 109.314 C 221.03 111.692 219.89 114.062 218.734 116.424 C 213.231 127.725 206.995 140.534 204.636 154.759 C 199.952 183.009 207.508 205.592 225.913 218.347 C 237.081 226.087 248.423 229.131 259.836 229.131 C 281.326 229.131 303.066 218.334 324.329 207.772 C 339.642 200.167 355.477 192.302 371.118 188.444 C 376.938 187.009 382.926 186.145 389.266 185.231 C 401.839 183.417 414.839 181.542 426.355 174.873 C 439.704 167.141 448.841 154.171 451.425 139.291 C 453.643 126.516 450.974 113.721 444.464 102.869 C 447.601 97.749 449.258 91.861 449.251 85.858 Z" fill="#fff"/>
                            </g>
                          </g>
                        </g>
                      </g>
                    </g>
                  </g>
                </g>
              </g>
            </g>
          </g>
        </g>
      </g>
    </g>
  </g>
</svg>